# Blender v2.71 (sub 0) OBJ File: 'TANK.blend'
# www.blender.org
v -0.389779 0.317557 0.402781
v -0.389779 0.317557 -0.375396
v 0.388398 0.317557 -0.375396
v 0.388398 0.317557 0.402781
v -0.389779 0.457998 0.402781
v -0.389779 0.457998 -0.375396
v 0.388398 0.457998 -0.375396
v 0.388398 0.457998 0.402781
v -0.465521 0.387777 0.478524
v -0.465522 0.457998 0.013693
v -0.465522 0.387777 -0.451138
v -0.465522 0.317557 0.013693
v -0.000691 0.457998 -0.451138
v 0.464141 0.387777 -0.451138
v -0.000690 0.317557 -0.451139
v 0.464141 0.457998 0.013693
v 0.464141 0.387777 0.478524
v 0.464141 0.317557 0.013693
v -0.000690 0.457998 0.478524
v -0.000690 0.317557 0.478524
v -0.601252 0.387777 0.013693
v -0.000691 0.387777 -0.586869
v 0.599872 0.387777 0.013693
v -0.000690 0.387777 0.614255
v -0.000690 0.317557 0.013693
v -0.274250 0.608669 0.287252
v -0.274250 0.608669 -0.259867
v 0.272869 0.608669 -0.259867
v 0.272869 0.608669 0.287252
v -0.327503 0.608669 0.013693
v -0.000691 0.608669 -0.313119
v 0.326122 0.608669 0.013693
v -0.000690 0.608669 0.340505
v -0.000690 0.608669 0.013693
v -0.084802 0.510320 1.430996
v 0.083421 0.510320 1.430996
v -0.000690 0.510320 1.430996
v -0.059827 0.556347 1.430996
v 0.058446 0.556347 1.430996
v -0.000690 0.556347 1.430996
v -0.131756 0.569428 1.126900
v -0.179254 0.582508 0.847017
v -0.226752 0.595589 0.567135
v -0.322222 0.471078 0.662605
v -0.254665 0.484159 0.922428
v -0.187108 0.497239 1.182251
v 0.130376 0.569428 1.126900
v 0.177873 0.582508 0.847017
v 0.225371 0.595589 0.567135
v -0.000690 0.595589 0.611141
v -0.000690 0.582508 0.881778
v -0.000690 0.569428 1.152414
v 0.185727 0.497239 1.182251
v 0.253284 0.484159 0.922428
v 0.320841 0.471078 0.662605
v -0.000690 0.497239 1.218541
v -0.000690 0.484159 0.971869
v -0.000690 0.471078 0.725196
v -0.054324 0.518659 1.430996
v 0.052943 0.518659 1.430996
v -0.000690 0.518659 1.430996
v -0.038399 0.548008 1.430996
v 0.037018 0.548008 1.430996
v -0.000690 0.548008 1.430996
v -0.054324 0.518659 1.414487
v 0.052943 0.518659 1.414487
v -0.000690 0.518659 1.414487
v -0.038399 0.548008 1.414487
v 0.037018 0.548008 1.414487
v -0.000690 0.548008 1.414487
vt 0.792926 0.441148
vt 0.760408 0.570810
vt 0.675949 0.561476
vt 0.792926 0.133950
vt 0.809797 0.000718
vt 0.896463 0.000000
vt 0.191469 0.154839
vt 0.192355 0.021074
vt 0.279486 0.009334
vt 0.350610 0.704863
vt 0.333739 0.838916
vt 0.247073 0.838916
vt 0.721947 0.701497
vt 0.689683 0.790544
vt 0.603672 0.791494
vt 0.617778 0.283902
vt 0.672284 0.000000
vt 0.733544 0.008254
vt 0.587932 0.415971
vt 0.692823 0.430716
vt 0.704909 0.295643
vt 0.789368 0.304977
vt 1.000000 0.133950
vt 0.896463 0.132663
vt 0.896463 0.267900
vt 0.809797 0.268618
vt 0.396463 0.129662
vt 0.296360 0.140094
vt 0.308446 0.275167
vt 0.221315 0.286907
vt 0.143536 0.704863
vt 0.247073 0.704863
vt 0.247073 0.570810
vt 0.333739 0.570810
vt 0.523943 0.660808
vt 0.622945 0.681152
vt 0.642217 0.570810
vt 0.721947 0.605819
vt 0.983129 0.268618
vt 0.957396 0.557127
vt 0.896463 0.556622
vt 0.392905 0.265833
vt 0.396463 0.555993
vt 0.337082 0.562555
vt 0.143536 0.654438
vt 0.115685 0.643190
vt 0.126638 0.573201
vt 0.059842 1.000000
vt 0.001712 0.976522
vt 0.000000 0.910584
vt 0.083694 0.847597
vt 0.071768 0.923799
vt 0.143536 0.937014
vt 0.121859 0.998645
vt 0.476534 0.049275
vt 0.450419 0.185296
vt 0.396463 0.152175
vt 0.085972 0.643839
vt 0.113652 0.570810
vt 0.080071 0.521535
vt 0.009051 0.506154
vt 0.000000 0.418635
vt 0.478799 0.771312
vt 0.456012 0.835541
vt 0.437276 0.835541
vt 0.395753 0.771312
vt 0.437276 0.779844
vt 0.141824 0.871076
vt 0.094357 0.779462
vt 0.142395 0.798863
vt 0.105021 0.711326
vt 0.142965 0.726651
vt 0.561992 0.251034
vt 0.607034 0.016425
vt 0.506205 0.218165
vt 0.541784 0.032850
vt 0.021677 0.848953
vt 0.043109 0.780581
vt 0.064540 0.712210
vt 0.275821 0.570810
vt 0.210571 0.554385
vt 0.165529 0.319776
vt 0.145321 0.537960
vt 0.109743 0.352645
vt 0.053956 0.385514
vt 0.523943 0.570810
vt 0.508895 0.637644
vt 0.437276 0.652361
vt 0.493847 0.704478
vt 0.437276 0.716103
vt 0.350610 0.570810
vt 0.437276 0.588619
vt 0.365658 0.637644
vt 0.380706 0.704478
vt 0.588817 0.549735
vt 0.983129 0.000718
vt 0.363945 0.000000
vt 0.160407 0.838916
vt 0.160407 0.570810
vt 0.523943 0.756485
vt 0.556207 0.571760
vt 0.139625 0.575592
vt 0.405514 0.064656
vt 0.835530 0.557127
vt 0.792926 0.014817
vt 0.418541 0.835541
vt 0.753855 0.658678
vt 0.740682 0.658678
vt 0.740682 0.642758
vt 0.721947 0.570810
vt 0.728736 0.586729
vt 0.732283 0.642758
vt 0.725526 0.779587
vt 0.721947 0.779587
vt 0.721947 0.770476
vt 0.721947 0.714707
vt 0.725611 0.714750
vt 0.725610 0.770476
vt 0.727510 0.658678
vt 0.759417 0.570810
vt 0.749082 0.642758
vt 0.752629 0.586729
vt 0.740682 0.586729
vt 0.740682 0.570810
vt 0.725494 0.658678
vt 0.733894 0.658678
vt 0.745840 0.714707
vt 0.733894 0.714707
vt 0.725526 0.788697
vt 0.721947 0.788697
vt 0.729274 0.770433
vt 0.729274 0.714707
vt 0.732873 0.714707
vt 0.732873 0.727665
vt 0.729274 0.727665
vt 0.732873 0.740623
vt 0.725526 0.770476
vt 0.721947 0.770433
vt 0.742293 0.658678
vt 0.729274 0.740623
vn -0.608800 -0.784500 -0.118500
vn 0.118500 -0.784500 -0.608800
vn 0.608800 -0.784500 0.118500
vn -0.118500 -0.784500 0.608800
vn 0.000000 -1.000000 -0.000000
vn -0.729900 0.668600 0.142100
vn -0.455400 -0.880300 0.133000
vn -0.455400 0.880300 0.133000
vn -0.608800 0.784500 -0.118500
vn -0.133000 -0.880300 -0.455400
vn -0.133000 0.880300 -0.455400
vn 0.118500 0.784500 -0.608800
vn 0.455400 -0.880300 -0.133000
vn 0.455400 0.880300 -0.133000
vn 0.608800 0.784500 0.118500
vn 0.133000 -0.880300 0.455400
vn 0.133000 0.880300 0.455400
vn -0.118500 0.784500 0.608800
vn -0.142100 0.668600 -0.729900
vn 0.729900 0.668600 -0.142100
vn 0.009100 0.998900 0.046900
vn 0.000000 1.000000 0.000000
vn -0.672800 0.699800 0.239900
vn 0.729900 0.668600 0.142100
vn 0.142100 0.668600 -0.729900
vn -0.729900 0.668600 -0.142100
vn 0.000000 0.999100 0.043000
vn 0.856900 0.464900 0.222700
vn 0.000000 -0.998600 0.052500
vn -0.012000 -0.998000 0.061400
vn 0.009400 0.998800 0.048300
vn -0.723400 0.673000 0.154200
vn -0.009400 0.998800 0.048300
vn 0.723400 0.673000 0.154200
vn 0.010300 -0.998500 0.053000
vn -0.010300 -0.998500 0.053000
vn -0.455400 -0.880300 -0.133000
vn 0.133000 -0.880300 -0.455400
vn 0.455400 -0.880300 0.133000
vn -0.133000 -0.880300 0.455400
vn -0.608800 -0.784500 0.118500
vn -0.608800 0.784500 0.118500
vn -0.455400 0.880300 -0.133000
vn -0.118500 -0.784500 -0.608800
vn -0.118500 0.784500 -0.608800
vn 0.133000 0.880300 -0.455400
vn 0.608800 -0.784500 -0.118500
vn 0.608800 0.784500 -0.118500
vn 0.455400 0.880300 0.133000
vn 0.118500 -0.784500 0.608800
vn 0.118500 0.784500 0.608800
vn -0.133000 0.880300 0.455400
vn -0.856900 0.464900 0.222700
vn -0.009100 0.998900 0.046900
vn 0.672800 0.699800 0.239900
vn 0.012000 -0.998000 0.061400
vn 0.000000 0.000000 1.000000
vn 0.878900 -0.476900 0.000000
vn -0.878900 -0.476900 0.000000
vn 0.879000 -0.476900 0.000000
vn -0.879000 -0.476900 0.000000
s off
f 11/1/1 2/2/1 12/3/1
f 14/4/2 3/5/2 15/6/2
f 17/7/3 4/8/3 18/9/3
f 9/10/4 1/11/4 20/12/4
f 15/13/5 3/14/5 18/15/5
f 5/16/6 26/17/6 30/18/6
f 9/19/7 21/20/7 12/3/7
f 10/21/8 21/20/8 9/19/8
f 10/21/9 6/22/9 11/1/9
f 11/23/10 22/24/10 15/6/10
f 13/25/11 22/24/11 11/23/11
f 13/25/12 7/26/12 14/4/12
f 14/27/13 23/28/13 18/9/13
f 16/29/14 23/28/14 14/27/14
f 16/29/15 8/30/15 17/7/15
f 17/31/16 24/32/16 20/12/16
f 19/33/17 24/32/17 17/31/17
f 19/33/18 5/34/18 9/10/18
f 20/35/5 25/36/5 18/15/5
f 12/37/5 25/36/5 20/35/5
f 12/37/5 2/38/5 15/13/5
f 6/39/19 27/40/19 31/41/19
f 7/42/20 28/43/20 32/44/20
f 47/45/21 52/46/21 40/47/21
f 31/48/22 27/49/22 30/50/22
f 33/51/22 34/52/22 30/50/22
f 32/53/22 34/52/22 33/51/22
f 32/53/22 28/54/22 31/48/22
f 41/55/23 46/56/23 35/57/23
f 8/30/24 16/29/24 32/44/24
f 7/26/25 13/25/25 31/41/25
f 6/22/26 10/21/26 30/18/26
f 41/58/27 38/59/27 40/47/27
f 47/60/28 39/61/28 36/62/28
f 53/63/29 36/64/29 37/65/29
f 46/66/30 56/67/30 37/65/30
f 29/68/31 33/51/31 50/69/31
f 49/70/31 50/69/31 51/71/31
f 48/72/31 51/71/31 52/46/31
f 26/17/32 5/16/32 44/73/32
f 43/74/32 44/73/32 45/75/32
f 42/76/32 45/75/32 46/56/32
f 26/77/33 43/78/33 50/69/33
f 43/78/33 42/79/33 51/71/33
f 42/79/33 41/58/33 52/46/33
f 29/80/34 49/81/34 55/82/34
f 49/81/34 48/83/34 54/84/34
f 48/83/34 47/60/34 53/85/34
f 8/86/35 55/87/35 58/88/35
f 55/87/35 54/89/35 57/90/35
f 54/89/35 53/63/35 56/67/35
f 5/91/36 19/92/36 58/88/36
f 44/93/36 58/88/36 57/90/36
f 45/94/36 57/90/36 56/67/36
f 21/20/37 11/1/37 12/3/37
f 22/24/38 14/4/38 15/6/38
f 23/28/39 17/7/39 18/9/39
f 24/32/40 9/10/40 20/12/40
f 25/36/5 15/13/5 18/15/5
f 10/21/6 5/16/6 30/18/6
f 1/95/41 9/19/41 12/3/41
f 5/16/42 10/21/42 9/19/42
f 21/20/43 10/21/43 11/1/43
f 2/96/44 11/23/44 15/6/44
f 6/39/45 13/25/45 11/23/45
f 22/24/46 13/25/46 14/4/46
f 3/97/47 14/27/47 18/9/47
f 7/42/48 16/29/48 14/27/48
f 23/28/49 16/29/49 17/7/49
f 4/98/50 17/31/50 20/12/50
f 8/99/51 19/33/51 17/31/51
f 24/32/52 19/33/52 9/10/52
f 4/100/5 20/35/5 18/15/5
f 1/101/5 12/37/5 20/35/5
f 25/36/5 12/37/5 15/13/5
f 13/25/19 6/39/19 31/41/19
f 16/29/20 7/42/20 32/44/20
f 39/102/27 47/45/27 40/47/27
f 34/52/22 31/48/22 30/50/22
f 26/77/22 33/51/22 30/50/22
f 29/68/22 32/53/22 33/51/22
f 34/52/22 32/53/22 31/48/22
f 38/103/53 41/55/53 35/57/53
f 29/80/24 8/30/24 32/44/24
f 28/104/25 7/26/25 31/41/25
f 27/105/26 6/22/26 30/18/26
f 52/46/54 41/58/54 40/47/54
f 53/85/55 47/60/55 36/62/55
f 56/67/56 53/63/56 37/65/56
f 35/106/29 46/66/29 37/65/29
f 49/70/31 29/68/31 50/69/31
f 48/72/31 49/70/31 51/71/31
f 47/45/31 48/72/31 52/46/31
f 43/74/32 26/17/32 44/73/32
f 42/76/32 43/74/32 45/75/32
f 41/55/32 42/76/32 46/56/32
f 33/51/33 26/77/33 50/69/33
f 50/69/33 43/78/33 51/71/33
f 51/71/33 42/79/33 52/46/33
f 8/30/34 29/80/34 55/82/34
f 55/82/34 49/81/34 54/84/34
f 54/84/34 48/83/34 53/85/34
f 19/92/35 8/86/35 58/88/35
f 58/88/35 55/87/35 57/90/35
f 57/90/35 54/89/35 56/67/35
f 44/93/36 5/91/36 58/88/36
f 45/94/36 44/93/36 57/90/36
f 46/66/36 45/94/36 56/67/36
f 39/107/57 40/108/57 64/109/57
f 35/110/57 59/111/57 62/112/57
f 64/113/5 70/114/5 69/115/5
f 59/116/58 65/117/58 68/118/58
f 38/119/57 62/112/57 64/109/57
f 36/120/57 39/107/57 63/121/57
f 36/120/57 60/122/57 61/123/57
f 35/110/57 37/124/57 61/123/57
f 66/116/57 69/125/57 70/126/57
f 65/127/57 67/128/57 70/126/57
f 62/129/5 68/130/5 70/114/5
f 63/131/59 69/118/59 66/117/59
f 60/132/22 66/133/22 67/134/22
f 61/135/22 67/134/22 65/136/22
f 63/121/57 39/107/57 64/109/57
f 38/119/57 35/110/57 62/112/57
f 63/137/5 64/113/5 69/115/5
f 62/138/60 59/116/60 68/118/60
f 40/108/57 38/119/57 64/109/57
f 60/122/57 36/120/57 63/121/57
f 37/124/57 36/120/57 61/123/57
f 59/111/57 35/110/57 61/123/57
f 67/128/57 66/116/57 70/126/57
f 68/139/57 65/127/57 70/126/57
f 64/113/5 62/129/5 70/114/5
f 60/132/61 63/131/61 66/117/61
f 61/135/22 60/132/22 67/134/22
f 59/140/22 61/135/22 65/136/22
