# Blender v2.72 (sub 0) OBJ File: 'TANK.blend'
# www.blender.org
v 0.245217 0.129478 -1.110329
v 0.245217 0.027283 -0.211112
v 0.245217 0.224937 -1.110329
v 0.245217 0.327132 -0.211111
v 0.245217 0.027283 -0.660721
v 0.245217 0.177207 -1.110329
v 0.245217 0.327132 -0.660720
v 0.245217 0.027283 0.688106
v 0.245217 0.327132 0.688106
v 1.014867 0.148577 -1.110329
v 0.245217 0.129478 1.137715
v 0.245217 0.224937 1.137715
v 0.245217 0.177207 1.137715
v 0.889539 0.055248 -0.211112
v 0.959086 0.235754 -1.110329
v 0.714322 0.329083 -0.211111
v 0.889539 0.055248 -0.660720
v 0.986976 0.192166 -1.110329
v 0.801931 0.192165 -0.211111
v 0.714323 0.329083 -0.660720
v 0.801931 0.192166 -0.660720
v 0.889539 0.055248 0.688106
v 0.714322 0.329083 0.688106
v 0.801931 0.192165 0.688106
v 0.829822 0.148577 1.137715
v 0.774040 0.235754 1.137715
v 0.801931 0.192165 1.137715
v 0.245217 0.327132 0.238497
v 0.245217 0.027283 0.238497
v 0.714322 0.329083 0.238498
v 0.889539 0.055248 0.238497
v 0.801931 0.192165 0.238497
v 0.925038 0.120635 -1.110329
v 0.343580 0.129478 -1.110329
v 0.343580 0.327132 -0.660720
v 0.624494 0.301141 -0.660720
v 0.869257 0.207812 -1.110329
v 0.343581 0.224937 -1.110329
v 0.624493 0.301141 -0.211111
v 0.343580 0.327133 -0.211111
v 0.624493 0.301141 0.688106
v 0.343580 0.327133 0.688106
v 0.304722 0.027283 -0.211112
v 0.799711 0.027306 -0.211112
v 0.684211 0.207812 1.137715
v 0.343579 0.224937 1.137715
v 0.712102 0.164224 1.137715
v 0.343580 0.177207 1.137715
v 0.343580 0.027283 0.688106
v 0.799711 0.027306 0.688106
v 0.739993 0.120635 1.137715
v 0.343580 0.129478 1.137715
v 0.343580 0.177207 -1.110329
v 0.897148 0.164224 -1.110329
v 0.799711 0.027306 -0.660720
v 0.343580 0.027283 -0.660721
v 0.343580 0.327132 0.238497
v 0.624493 0.301141 0.238498
v 0.304722 0.027283 0.238497
v 0.799711 0.027306 0.238497
v 0.343580 0.128789 -1.110329
v 0.343580 0.193365 -0.211112
v 0.701537 0.184583 -0.211112
v 0.343580 0.193365 0.688106
v 0.740395 0.184583 0.688106
v 0.740395 0.120006 1.137715
v 0.343580 0.128789 1.137715
v 0.701537 0.184583 -0.660720
v 0.343580 0.193365 -0.660721
v 0.343580 0.193365 0.238497
v 0.701537 0.184583 0.238497
v 0.682445 0.210573 -0.660720
v 0.343580 0.227961 -0.660720
v 0.343580 0.227961 0.688106
v 0.682444 0.210573 0.688106
v -0.246598 0.129478 -1.110329
v -0.246598 0.027283 -0.211112
v -0.246598 0.224937 -1.110329
v -0.246598 0.327132 -0.211111
v -0.246598 0.027283 -0.660721
v -0.246598 0.177207 -1.110329
v -0.246598 0.327132 -0.660720
v -0.246598 0.027283 0.688106
v -0.246598 0.327132 0.688106
v -1.016248 0.148577 -1.110329
v -0.246598 0.129478 1.137715
v -0.246598 0.224937 1.137715
v -0.246598 0.177207 1.137715
v -0.890920 0.055248 -0.211112
v -0.960467 0.235754 -1.110329
v -0.715703 0.329083 -0.211111
v -0.890920 0.055248 -0.660720
v -0.988357 0.192166 -1.110329
v -0.803312 0.192165 -0.211111
v -0.715703 0.329083 -0.660720
v -0.803312 0.192166 -0.660720
v -0.890920 0.055248 0.688106
v -0.715703 0.329083 0.688106
v -0.803312 0.192165 0.688106
v -0.831203 0.148577 1.137715
v -0.775421 0.235754 1.137715
v -0.803312 0.192165 1.137715
v -0.246598 0.327132 0.238497
v -0.246598 0.027283 0.238497
v -0.715703 0.329083 0.238498
v -0.890920 0.055248 0.238497
v -0.803312 0.192165 0.238497
v -0.926419 0.120635 -1.110329
v -0.344961 0.129478 -1.110329
v -0.344961 0.327132 -0.660720
v -0.625875 0.301141 -0.660720
v -0.870638 0.207812 -1.110329
v -0.344962 0.224937 -1.110329
v -0.625874 0.301141 -0.211111
v -0.344961 0.327133 -0.211111
v -0.625874 0.301141 0.688106
v -0.344961 0.327133 0.688106
v -0.306102 0.027283 -0.211112
v -0.801091 0.027306 -0.211112
v -0.685591 0.207812 1.137715
v -0.344960 0.224937 1.137715
v -0.713483 0.164224 1.137715
v -0.344961 0.177207 1.137715
v -0.344961 0.027283 0.688106
v -0.801091 0.027306 0.688106
v -0.741374 0.120635 1.137715
v -0.344961 0.129478 1.137715
v -0.344961 0.177207 -1.110329
v -0.898529 0.164224 -1.110329
v -0.801091 0.027306 -0.660720
v -0.344961 0.027283 -0.660721
v -0.344961 0.327132 0.238497
v -0.625874 0.301141 0.238498
v -0.306102 0.027283 0.238497
v -0.801091 0.027306 0.238497
v -0.344961 0.128789 -1.110329
v -0.344961 0.193365 -0.211112
v -0.702918 0.184583 -0.211112
v -0.344961 0.193365 0.688106
v -0.741776 0.184583 0.688106
v -0.741776 0.120006 1.137715
v -0.344961 0.128789 1.137715
v -0.702918 0.184583 -0.660720
v -0.344961 0.193365 -0.660721
v -0.344961 0.193365 0.238497
v -0.702918 0.184583 0.238497
v -0.683825 0.210573 -0.660720
v -0.344961 0.227961 -0.660720
v -0.344961 0.227961 0.688106
v -0.683825 0.210573 0.688106
v -0.000690 0.129478 -1.110329
v -0.000690 0.027283 -0.211112
v -0.000690 0.224937 -1.110329
v -0.000690 0.327132 -0.211112
v -0.000690 0.027283 -0.660721
v -0.000690 0.327132 -0.660720
v -0.000690 0.177207 -1.110329
v -0.000690 0.027283 0.688106
v -0.000690 0.327132 0.688106
v -0.000690 0.129478 1.223413
v -0.000690 0.224937 1.223413
v -0.000690 0.177207 1.223413
v -0.000690 0.027283 0.238497
v -0.000690 0.327132 0.238497
vt 0.972311 0.431236
vt 0.941320 0.431236
vt 0.941320 0.410788
vt 0.645611 0.577633
vt 0.645611 0.770250
vt 0.568668 0.770294
vt 0.102353 0.192940
vt 0.073036 0.193007
vt 0.000000 0.000067
vt 0.102353 0.770783
vt 0.073036 0.770850
vt 0.073036 0.578236
vt 0.087385 0.963107
vt 0.058067 0.963174
vt 0.889859 0.388199
vt 0.919360 0.386733
vt 0.930340 0.579067
vt 0.650799 0.963100
vt 0.573856 0.999858
vt 0.972142 0.451827
vt 0.972142 0.472253
vt 0.941320 0.472110
vt 0.972142 0.492679
vt 0.941320 0.492536
vt 0.908875 0.966142
vt 0.911820 0.772868
vt 0.941320 0.771402
vt 0.502497 0.194155
vt 0.568668 0.194534
vt 0.568668 0.387081
vt 0.436326 0.193777
vt 0.502497 0.386702
vt 0.469652 0.000000
vt 0.490718 0.000121
vt 0.511784 0.000241
vt 0.436327 0.578869
vt 0.502497 0.579248
vt 0.502497 0.771795
vt 0.436326 0.771416
vt 0.502497 0.964341
vt 0.568668 0.579627
vt 0.568668 0.772173
vt 0.523563 0.964462
vt 0.878879 0.195864
vt 0.911820 0.001466
vt 0.941320 0.000000
vt 0.102354 0.385555
vt 0.073036 0.385621
vt 0.972311 0.451684
vt 0.941320 0.451684
vt 0.908380 0.194398
vt 0.645611 0.385017
vt 0.568668 0.577678
vt 0.102354 0.578169
vt 0.900840 0.580533
vt 0.436327 0.386323
vt 0.984456 0.337376
vt 0.962888 0.337376
vt 0.962888 0.307994
vt 0.220321 0.193089
vt 0.189454 0.193071
vt 0.193583 0.000150
vt 0.220321 0.770932
vt 0.189454 0.770914
vt 0.189454 0.578300
vt 0.224450 0.963240
vt 0.193583 0.963222
vt 0.664240 0.385006
vt 0.664240 0.577623
vt 0.322518 0.567774
vt 0.399587 0.575493
vt 0.378642 0.766262
vt 0.941320 0.278805
vt 0.962888 0.278805
vt 0.984456 0.278805
vt 0.984456 0.307994
vt 0.676405 0.770232
vt 0.681593 0.963082
vt 0.650799 0.000018
vt 0.681593 0.000000
vt 0.676405 0.192383
vt 0.220321 0.385704
vt 0.189454 0.385685
vt 0.941320 0.337376
vt 0.941320 0.307994
vt 0.645611 0.192401
vt 0.805378 0.770429
vt 0.878879 0.770033
vt 0.850300 0.962733
vt 0.220321 0.578318
vt 0.364409 0.186236
vt 0.436326 0.194426
vt 0.420533 0.384725
vt 0.850605 0.000000
vt 0.850300 0.000002
vt 0.878879 0.192394
vt 0.681910 0.192618
vt 0.793529 0.192616
vt 0.793371 0.385233
vt 0.682068 0.000002
vt 0.793688 0.000000
vt 0.681751 0.385235
vt 0.805378 0.577851
vt 0.807851 0.385649
vt 0.878879 0.384941
vt 0.878879 0.577487
vt 0.302022 0.956114
vt 0.301572 0.758542
vt 0.431281 0.000031
vt 0.430972 0.000000
vt 0.807851 0.578195
vt 0.805378 0.192790
vt 0.343463 0.377005
vt 0.804685 0.780453
vt 0.804685 0.887442
vt 0.789062 0.887964
vt 0.793159 0.786544
vt 0.744276 0.889458
vt 0.436326 0.771931
vt 0.344921 0.960377
vt 0.323471 0.958246
vt 0.391758 0.767503
vt 0.984824 0.005508
vt 0.979062 0.199032
vt 1.000000 0.201683
vt 0.726384 0.780325
vt 0.742009 0.780798
vt 0.742009 0.898614
vt 0.681593 0.778968
vt 0.730849 0.881070
vt 0.744276 0.780453
vt 0.761054 0.583595
vt 0.781959 0.580723
vt 0.802865 0.577851
vt 0.802865 0.772405
vt 0.787712 0.774486
vt 0.681593 0.577851
vt 0.726033 0.583317
vt 0.722888 0.776337
vt 0.744276 0.778968
vt 0.568668 0.192445
vt 0.573856 0.000062
vt 0.568668 0.385061
vt 0.297443 0.193135
vt 0.297443 0.385750
vt 0.224450 0.000168
vt 0.301572 0.000215
vt 0.297443 0.578364
vt 0.297443 0.770979
vt 0.962888 0.410788
vt 0.984456 0.410788
vt 0.301572 1.000000
vt 0.962888 0.201683
vt 0.941320 0.201683
vt 0.938375 0.964676
vt 0.481431 0.964220
vt 0.958125 0.196381
vt 1.000000 0.007430
vt 0.690524 0.862643
vt 0.701499 0.773706
vt 0.744276 0.584514
vt 0.984456 0.201683
vt 0.972311 0.410788
vt 0.029317 0.000000
vt 0.850605 0.962732
vt 0.752901 0.805208
vn 0.000000 0.000000 -1.000000
vn 0.000000 -1.000000 0.000000
vn -0.279500 0.898500 -0.338600
vn -0.297000 0.954900 0.000000
vn -0.289000 0.929000 0.231200
vn 0.297000 -0.954900 0.000000
vn 0.077000 -0.972200 0.221000
vn -0.000000 -0.000000 1.000000
vn 0.289000 -0.929000 0.231200
vn 0.842300 0.539000 0.000000
vn 0.795900 0.509200 0.327600
vn 0.295100 -0.948600 -0.114700
vn 0.000000 0.975100 -0.221600
vn -0.000000 1.000000 -0.000000
vn 0.092100 0.995700 -0.000000
vn 0.000000 0.975100 0.221600
vn -0.848300 -0.529500 0.000000
vn 0.000000 -0.975100 0.221600
vn 0.000000 -0.975100 -0.221600
vn 1.000000 0.000000 0.000000
vn -0.932600 -0.351700 0.080600
vn -1.000000 0.000000 0.000000
vn -0.024500 -0.999700 0.000000
vn -0.024500 -0.999700 0.002100
vn 0.973700 -0.227800 0.000000
vn -0.801600 -0.500400 -0.327300
vn 0.839800 0.537300 0.077200
vn 0.996300 0.000000 0.086100
vn -0.795900 -0.509200 -0.327600
vn -0.766700 -0.563200 -0.308100
vn -0.842300 -0.539000 -0.000000
vn -0.000000 0.982300 0.187500
vn 0.329100 -0.000000 0.944300
vn 0.279500 0.898500 -0.338600
vn 0.297000 0.954900 0.000000
vn 0.289000 0.929000 0.231200
vn -0.297000 -0.954900 0.000000
vn -0.077000 -0.972200 0.221000
vn -0.289000 -0.929000 0.231200
vn -0.842300 0.539000 0.000000
vn -0.795900 0.509200 0.327500
vn -0.795900 0.509200 0.327600
vn -0.295100 -0.948600 -0.114700
vn -0.092100 0.995700 0.000000
vn 0.848300 -0.529500 0.000000
vn 0.932600 -0.351700 0.080600
vn 0.024500 -0.999700 0.000000
vn 0.024500 -0.999700 0.002100
vn -0.973700 -0.227800 0.000000
vn 0.797000 -0.510000 -0.323700
vn -0.839800 0.537300 0.077200
vn 0.795900 -0.509200 -0.327600
vn 0.766700 -0.563200 -0.308100
vn 0.842300 -0.539000 -0.000000
vn 0.405800 -0.904800 -0.129100
vn -0.077000 0.972200 0.221000
vn -0.329100 0.000000 0.944300
vn 0.000000 -0.982300 0.187500
vn 0.795900 0.509200 0.327500
vn -0.022100 -0.999800 0.000000
vn -0.797000 -0.510000 -0.323700
vn -0.934500 -0.352400 -0.051000
vn 0.996300 0.000000 -0.086100
vn -0.405800 -0.904800 -0.129100
vn 0.077000 0.972200 0.221000
vn 0.022100 -0.999800 0.000000
vn 0.801600 -0.500400 -0.327300
vn 0.934500 -0.352400 -0.051000
vn -0.996300 0.000000 -0.086100
vn -0.996300 0.000000 0.086100
s off
f 54/1/1 18/2/1 10/3/1
f 29/4/2 8/5/2 158/6/2
f 36/7/3 20/8/3 15/9/3
f 41/10/4 23/11/4 30/12/4
f 41/10/5 45/13/5 26/14/5
f 44/15/6 14/16/6 31/17/6
f 8/5/7 11/18/7 160/19/7
f 45/20/8 47/21/8 27/22/8
f 47/21/8 51/23/8 25/24/8
f 51/25/9 50/26/9 22/27/9
f 21/28/10 20/29/10 16/30/10
f 17/31/10 21/28/10 19/32/10
f 10/33/11 18/34/11 21/28/11
f 18/34/11 15/35/11 20/29/11
f 31/36/10 32/37/10 24/38/10
f 22/39/10 24/38/10 27/40/10
f 32/37/10 30/41/10 23/42/10
f 23/42/10 26/43/10 27/40/10
f 55/44/12 33/45/12 10/46/12
f 39/47/4 16/48/4 20/8/4
f 37/49/1 15/50/1 18/2/1
f 55/44/6 17/51/6 14/16/6
f 2/52/2 29/4/2 163/53/2
f 58/54/4 30/12/4 16/48/4
f 60/55/6 31/17/6 22/27/6
f 14/56/10 19/32/10 32/37/10
f 19/32/10 16/30/10 30/41/10
f 1/57/1 6/58/1 53/59/1
f 7/60/13 35/61/13 38/62/13
f 9/63/14 42/64/14 57/65/14
f 57/65/15 42/64/15 41/10/15
f 12/66/16 46/67/16 42/64/16
f 2/52/2 43/68/2 59/69/2
f 44/70/17 63/71/17 68/72/17
f 12/73/8 13/74/8 48/59/8
f 13/74/8 11/75/8 52/76/8
f 8/5/18 49/77/18 52/78/18
f 1/79/19 34/80/19 56/81/19
f 4/82/14 40/83/14 35/61/14
f 40/83/15 39/47/15 36/7/15
f 6/58/1 3/84/1 38/85/1
f 2/52/2 5/86/2 56/81/2
f 49/87/20 64/88/20 67/89/20
f 4/82/14 28/90/14 57/65/14
f 40/83/15 57/65/15 58/54/15
f 29/4/2 59/69/2 49/77/2
f 50/91/21 65/92/21 71/93/21
f 34/94/22 61/95/22 69/96/22
f 62/97/23 63/98/23 71/99/23
f 69/100/23 68/101/23 63/98/23
f 70/102/24 71/99/24 65/103/24
f 43/104/25 62/105/25 70/106/25
f 33/107/26 55/108/26 68/72/26
f 51/109/27 66/110/27 65/92/27
f 59/111/25 70/106/25 64/88/25
f 43/104/28 56/112/28 69/96/28
f 60/113/17 71/93/17 63/71/17
f 68/114/1 69/115/1 73/116/1
f 72/117/1 73/116/1 35/118/1
f 36/119/29 37/120/29 54/121/29
f 72/122/30 54/121/30 68/72/30
f 35/46/20 73/123/20 53/124/20
f 34/125/20 53/124/20 73/123/20
f 74/126/8 64/127/8 65/128/8
f 42/129/8 74/126/8 75/130/8
f 42/131/20 46/132/20 48/133/20
f 52/134/20 64/135/20 74/136/20
f 41/137/31 75/138/31 47/139/31
f 51/140/31 47/139/31 75/138/31
f 5/86/19 155/141/19 151/142/19
f 2/52/2 152/143/2 155/141/2
f 156/144/14 154/145/14 4/82/14
f 3/146/13 153/147/13 156/144/13
f 164/148/14 159/149/14 9/63/14
f 3/84/1 6/58/1 157/150/1
f 6/58/1 1/57/1 151/151/1
f 9/63/32 159/149/32 161/152/32
f 11/75/33 13/74/33 162/153/33
f 13/74/33 12/73/33 161/154/33
f 154/145/14 164/148/14 28/90/14
f 85/3/1 93/2/1 129/1/1
f 158/6/2 83/5/2 104/4/2
f 90/9/34 95/8/34 111/7/34
f 105/12/35 98/11/35 116/10/35
f 116/10/36 98/11/36 101/14/36
f 106/17/37 89/16/37 119/15/37
f 160/19/38 86/18/38 83/5/38
f 120/20/8 101/50/8 102/22/8
f 122/21/8 102/22/8 100/24/8
f 126/25/39 100/155/39 97/27/39
f 96/28/40 94/32/40 91/30/40
f 92/31/40 89/56/40 94/32/40
f 85/33/41 92/31/41 96/28/41
f 93/34/42 96/28/42 95/29/42
f 106/36/40 97/39/40 99/38/40
f 97/39/40 100/156/40 102/40/40
f 107/37/40 99/38/40 98/42/40
f 102/40/40 101/43/40 98/42/40
f 130/44/43 92/51/43 85/46/43
f 95/8/35 91/48/35 114/47/35
f 93/2/1 90/50/1 112/49/1
f 89/16/37 92/51/37 130/44/37
f 163/53/2 104/4/2 77/52/2
f 114/47/35 91/48/35 105/12/35
f 97/27/37 106/17/37 135/55/37
f 89/56/40 106/36/40 107/37/40
f 94/32/40 107/37/40 105/41/40
f 76/57/1 109/76/1 128/59/1
f 113/62/13 110/61/13 82/60/13
f 103/90/14 132/65/14 117/64/14
f 132/65/44 133/54/44 116/10/44
f 117/64/16 121/67/16 87/66/16
f 134/69/2 118/68/2 77/52/2
f 143/72/45 138/71/45 119/70/45
f 87/73/8 121/85/8 123/59/8
f 88/74/8 123/59/8 127/76/8
f 127/78/18 124/77/18 83/5/18
f 131/81/19 109/80/19 76/79/19
f 110/61/14 115/83/14 79/82/14
f 111/7/44 114/47/44 115/83/44
f 81/58/1 128/59/1 113/85/1
f 77/52/2 118/68/2 131/81/2
f 142/89/22 139/88/22 124/87/22
f 79/82/14 115/83/14 132/65/14
f 115/83/44 114/47/44 133/54/44
f 124/77/2 134/69/2 104/4/2
f 146/93/46 140/92/46 125/91/46
f 144/96/20 136/95/20 109/94/20
f 146/99/47 138/98/47 137/97/47
f 138/98/47 143/101/47 144/100/47
f 140/103/48 146/99/48 145/102/48
f 145/106/49 137/105/49 118/104/49
f 108/107/50 129/121/50 143/72/50
f 140/92/51 141/110/51 126/109/51
f 139/88/49 145/106/49 134/111/49
f 118/104/49 137/105/49 144/96/49
f 138/71/45 146/93/45 135/113/45
f 148/116/1 144/115/1 143/114/1
f 110/118/1 148/116/1 147/117/1
f 111/119/52 147/122/52 129/121/52
f 147/122/53 143/72/53 129/121/53
f 110/46/22 113/157/22 128/124/22
f 109/125/22 144/158/22 148/123/22
f 149/126/8 150/130/8 140/128/8
f 117/129/8 116/159/8 150/130/8
f 117/131/22 149/136/22 123/133/22
f 127/134/22 123/133/22 149/136/22
f 116/137/54 120/160/54 122/139/54
f 126/140/55 140/161/55 150/138/55
f 151/142/19 155/141/19 80/86/19
f 155/141/2 152/143/2 77/52/2
f 79/82/14 154/145/14 156/144/14
f 82/60/13 156/144/13 153/147/13
f 84/63/14 159/149/14 164/148/14
f 78/84/1 153/3/1 157/150/1
f 81/58/1 157/150/1 151/151/1
f 84/63/56 87/66/56 161/152/56
f 86/75/57 160/162/57 162/153/57
f 88/74/57 162/153/57 161/154/57
f 103/90/14 164/148/14 154/145/14
f 33/163/1 54/1/1 10/3/1
f 163/53/2 29/4/2 158/6/2
f 37/164/3 36/7/3 15/9/3
f 58/54/4 41/10/4 30/12/4
f 23/11/5 41/10/5 26/14/5
f 60/55/6 44/15/6 31/17/6
f 158/6/58 8/5/58 160/19/58
f 26/50/8 45/20/8 27/22/8
f 27/22/8 47/21/8 25/24/8
f 25/155/9 51/25/9 22/27/9
f 19/32/10 21/28/10 16/30/10
f 14/56/10 17/31/10 19/32/10
f 17/31/59 10/33/59 21/28/59
f 21/28/11 18/34/11 20/29/11
f 22/39/10 31/36/10 24/38/10
f 25/156/10 22/39/10 27/40/10
f 24/38/10 32/37/10 23/42/10
f 24/38/10 23/42/10 27/40/10
f 17/51/12 55/44/12 10/46/12
f 36/7/4 39/47/4 20/8/4
f 54/1/1 37/49/1 18/2/1
f 44/15/6 55/44/6 14/16/6
f 152/143/2 2/52/2 163/53/2
f 39/47/4 58/54/4 16/48/4
f 50/26/6 60/55/6 22/27/6
f 31/36/10 14/56/10 32/37/10
f 32/37/10 19/32/10 30/41/10
f 34/76/1 1/57/1 53/59/1
f 3/146/13 7/60/13 38/62/13
f 28/90/14 9/63/14 57/65/14
f 58/54/15 57/65/15 41/10/15
f 9/63/16 12/66/16 42/64/16
f 29/4/2 2/52/2 59/69/2
f 55/108/17 44/70/17 68/72/17
f 46/85/8 12/73/8 48/59/8
f 48/59/8 13/74/8 52/76/8
f 11/18/18 8/5/18 52/78/18
f 5/86/19 1/79/19 56/81/19
f 7/60/14 4/82/14 35/61/14
f 35/61/15 40/83/15 36/7/15
f 53/59/1 6/58/1 38/85/1
f 43/68/2 2/52/2 56/81/2
f 52/165/22 49/87/22 67/89/22
f 40/83/14 4/82/14 57/65/14
f 39/47/15 40/83/15 58/54/15
f 8/5/2 29/4/2 49/77/2
f 60/113/17 50/91/17 71/93/17
f 56/112/20 34/94/20 69/96/20
f 70/102/23 62/97/23 71/99/23
f 62/97/23 69/100/23 63/98/23
f 64/137/60 70/102/60 65/103/60
f 59/111/25 43/104/25 70/106/25
f 54/121/61 33/107/61 68/72/61
f 50/91/62 51/109/62 65/92/62
f 49/87/63 59/111/63 64/88/63
f 62/105/25 43/104/25 69/96/25
f 44/70/17 60/113/17 63/71/17
f 72/117/1 68/114/1 73/116/1
f 36/166/1 72/117/1 35/118/1
f 72/122/29 36/119/29 54/121/29
f 38/157/20 35/46/20 53/124/20
f 69/158/20 34/125/20 73/123/20
f 75/130/8 74/126/8 65/128/8
f 41/159/8 42/129/8 75/130/8
f 74/136/20 42/131/20 48/133/20
f 48/133/20 52/134/20 74/136/20
f 45/160/31 41/137/31 47/139/31
f 65/161/64 51/140/64 75/138/64
f 1/79/19 5/86/19 151/142/19
f 5/86/2 2/52/2 155/141/2
f 7/60/14 156/144/14 4/82/14
f 7/60/13 3/146/13 156/144/13
f 28/90/14 164/148/14 9/63/14
f 153/3/1 3/84/1 157/150/1
f 157/150/1 6/58/1 151/151/1
f 12/66/65 9/63/65 161/152/65
f 160/162/33 11/75/33 162/153/33
f 162/153/33 13/74/33 161/154/33
f 4/82/14 154/145/14 28/90/14
f 108/163/1 85/3/1 129/1/1
f 163/53/2 158/6/2 104/4/2
f 112/164/34 90/9/34 111/7/34
f 133/54/35 105/12/35 116/10/35
f 120/13/36 116/10/36 101/14/36
f 135/55/37 106/17/37 119/15/37
f 158/6/58 160/19/58 83/5/58
f 122/21/8 120/20/8 102/22/8
f 126/23/8 122/21/8 100/24/8
f 125/26/39 126/25/39 97/27/39
f 95/29/40 96/28/40 91/30/40
f 96/28/40 92/31/40 94/32/40
f 93/34/42 85/33/42 96/28/42
f 90/35/42 93/34/42 95/29/42
f 107/37/40 106/36/40 99/38/40
f 99/38/40 97/39/40 102/40/40
f 105/41/40 107/37/40 98/42/40
f 99/38/40 102/40/40 98/42/40
f 108/45/43 130/44/43 85/46/43
f 111/7/35 95/8/35 114/47/35
f 129/1/1 93/2/1 112/49/1
f 119/15/37 89/16/37 130/44/37
f 152/143/2 163/53/2 77/52/2
f 133/54/35 114/47/35 105/12/35
f 125/26/37 97/27/37 135/55/37
f 94/32/40 89/56/40 107/37/40
f 91/30/40 94/32/40 105/41/40
f 81/58/1 76/57/1 128/59/1
f 78/146/13 113/62/13 82/60/13
f 84/63/14 103/90/14 117/64/14
f 117/64/44 132/65/44 116/10/44
f 84/63/16 117/64/16 87/66/16
f 104/4/2 134/69/2 77/52/2
f 130/108/45 143/72/45 119/70/45
f 88/74/8 87/73/8 123/59/8
f 86/75/8 88/74/8 127/76/8
f 86/18/18 127/78/18 83/5/18
f 80/86/19 131/81/19 76/79/19
f 82/60/14 110/61/14 79/82/14
f 110/61/44 111/7/44 115/83/44
f 78/84/1 81/58/1 113/85/1
f 80/86/2 77/52/2 131/81/2
f 127/165/20 142/89/20 124/87/20
f 103/90/14 79/82/14 132/65/14
f 132/65/44 115/83/44 133/54/44
f 83/5/2 124/77/2 104/4/2
f 135/113/45 146/93/45 125/91/45
f 131/112/22 144/96/22 109/94/22
f 145/102/47 146/99/47 137/97/47
f 137/97/47 138/98/47 144/100/47
f 139/137/66 140/103/66 145/102/66
f 134/111/49 145/106/49 118/104/49
f 130/108/67 108/107/67 143/72/67
f 125/91/68 140/92/68 126/109/68
f 124/87/69 139/88/69 134/111/69
f 131/112/70 118/104/70 144/96/70
f 119/70/45 138/71/45 135/113/45
f 147/117/1 148/116/1 143/114/1
f 111/166/1 110/118/1 147/117/1
f 112/120/52 111/119/52 129/121/52
f 148/123/22 110/46/22 128/124/22
f 128/124/22 109/125/22 148/123/22
f 139/127/8 149/126/8 140/128/8
f 149/126/8 117/129/8 150/130/8
f 121/132/22 117/131/22 123/133/22
f 139/135/22 127/134/22 149/136/22
f 150/138/54 116/137/54 122/139/54
f 122/139/54 126/140/54 150/138/54
f 76/79/19 151/142/19 80/86/19
f 80/86/2 155/141/2 77/52/2
f 82/60/14 79/82/14 156/144/14
f 78/146/13 82/60/13 153/147/13
f 103/90/14 84/63/14 164/148/14
f 81/58/1 78/84/1 157/150/1
f 76/57/1 81/58/1 151/151/1
f 159/149/32 84/63/32 161/152/32
f 88/74/57 86/75/57 162/153/57
f 87/73/57 88/74/57 161/154/57
f 79/82/14 103/90/14 154/145/14
