# Blender v2.71 (sub 0) OBJ File: 'TANK.blend'
# www.blender.org
v -0.315425 1.280623 0.315425
v -0.315425 1.280623 -0.315425
v 0.315425 1.280623 -0.315425
v 0.315425 1.280623 0.315425
v -0.376828 0.965198 0.376828
v -0.376828 1.342026 0.000000
v -0.376828 0.965198 -0.376828
v 0.000000 1.342026 -0.376828
v 0.376828 0.965198 -0.376828
v 0.376828 1.342026 0.000000
v 0.376828 0.965198 0.376828
v 0.000000 1.342026 0.376828
v -0.486862 0.965198 0.000000
v 0.000000 0.965198 -0.486862
v 0.486862 0.965198 0.000000
v 0.000000 0.965198 0.486862
v 0.000000 1.452059 0.000000
v -0.345975 1.123691 0.345975
v -0.345975 1.123691 -0.345975
v 0.345975 1.123691 -0.345975
v 0.345975 1.123691 0.345975
v -0.431572 1.154544 0.000000
v 0.000000 1.154544 -0.431572
v 0.431572 1.154544 0.000000
v 0.000000 1.154544 0.431572
v -0.157157 1.280623 0.480774
v 0.157157 1.280623 0.480774
v 0.000000 1.342026 0.542177
v -0.172378 1.123691 0.511324
v 0.172378 1.123691 0.511324
v 0.000000 1.120544 0.596922
v -0.157157 1.280623 1.102323
v 0.157157 1.280623 1.102323
v 0.000000 1.342026 1.102323
v -0.172378 1.123691 1.102323
v 0.172378 1.123691 1.102323
v 0.000000 1.076265 1.102323
v -0.119244 1.262255 1.102323
v 0.119244 1.262255 1.102323
v 0.000000 1.308845 1.102323
v -0.130793 1.143183 1.102323
v 0.130793 1.143183 1.102323
v 0.000000 1.107198 1.102323
v -0.119244 1.262255 1.018811
v 0.119244 1.262255 1.018811
v 0.000000 1.308845 1.018811
v -0.130793 1.143183 1.018811
v 0.130793 1.143183 1.018811
v 0.000000 1.107198 1.018811
vn -0.228700 0.946200 -0.228700
vn -0.924300 0.269900 0.269900
vn -0.939200 0.232100 -0.253100
vn -0.269900 0.269900 -0.924300
vn 0.253100 0.232100 -0.939200
vn 0.924300 0.269900 -0.269900
vn 0.939200 0.232100 0.253100
vn 0.269900 0.269900 0.924300
vn -0.253100 0.232100 0.939200
vn -0.269900 0.924300 0.269900
vn 0.269900 0.924300 0.269900
vn 0.228700 0.946200 -0.228700
vn -0.928500 0.271100 0.253900
vn -0.946200 0.228700 -0.228700
vn -0.253900 0.271100 -0.928500
vn 0.228700 0.228700 -0.946200
vn 0.928500 0.271100 -0.253900
vn 0.946200 0.228700 0.228700
vn 0.038100 -0.998500 0.040000
vn 0.135900 -0.970400 -0.199500
vn 0.265300 -0.964200 0.000000
vn 0.025100 -0.995900 -0.087300
vn 0.191100 0.981600 0.000000
vn 0.707700 0.200500 0.677400
vn -0.472300 0.756700 0.452000
vn -0.665000 0.265400 0.698100
vn 0.000000 0.000000 1.000000
vn 0.363900 0.931400 0.000000
vn 0.995300 0.096500 0.000000
vn -0.363900 0.931400 0.000000
vn -0.995300 0.096500 0.000000
vn -0.265300 0.964200 0.000000
vn 0.265300 0.964200 0.000000
vn -0.363900 -0.931400 0.000000
vn -0.995300 -0.096500 0.000000
vn 0.363900 -0.931400 0.000000
vn 0.995300 -0.096500 0.000000
vn -0.269900 0.924300 -0.269900
vn -0.939200 0.232100 0.253100
vn -0.924300 0.269900 -0.269900
vn -0.253100 0.232100 -0.939200
vn 0.269900 0.269900 -0.924300
vn 0.939200 0.232100 -0.253100
vn 0.924300 0.269900 0.269900
vn 0.253100 0.232100 0.939200
vn -0.269900 0.269900 0.924300
vn -0.228700 0.946200 0.228700
vn 0.228700 0.946200 0.228700
vn 0.269900 0.924300 -0.269900
vn -0.946200 0.228700 0.228700
vn -0.928500 0.271100 -0.253900
vn -0.228700 0.228700 -0.946200
vn 0.253900 0.271100 -0.928500
vn 0.946200 0.228700 -0.228700
vn 0.928500 0.271100 0.253900
vn -0.135900 -0.970400 -0.199500
vn -0.038100 -0.998500 0.040000
vn -0.025100 -0.995900 -0.087300
vn -0.265300 -0.964200 0.000000
vn 0.472300 0.756700 0.452000
vn 0.665000 0.265400 0.698100
vn -0.191100 0.981600 0.000000
vn -0.707700 0.200500 0.677400
s off
f 8//1 2//1 6//1
f 22//2 13//2 5//2
f 22//3 19//3 7//3
f 23//4 14//4 7//4
f 23//5 20//5 9//5
f 24//6 15//6 9//6
f 24//7 21//7 11//7
f 25//8 16//8 11//8
f 25//9 18//9 5//9
f 12//10 17//10 6//10
f 10//11 17//11 12//11
f 10//12 3//12 8//12
f 6//13 22//13 18//13
f 6//14 2//14 19//14
f 8//15 23//15 19//15
f 8//16 3//16 20//16
f 10//17 24//17 20//17
f 10//18 4//18 21//18
f 21//19 30//19 31//19
f 18//20 25//20 31//20
f 30//21 36//21 37//21
f 29//22 31//22 37//22
f 4//23 12//23 28//23
f 4//24 27//24 30//24
f 1//25 26//25 28//25
f 1//26 18//26 29//26
f 36//27 42//27 43//27
f 35//27 37//27 43//27
f 27//28 28//28 34//28
f 27//29 33//29 36//29
f 26//30 32//30 34//30
f 26//31 29//31 35//31
f 42//32 48//32 49//32
f 43//33 49//33 47//33
f 33//27 34//27 40//27
f 36//27 33//27 39//27
f 32//27 38//27 40//27
f 35//27 41//27 38//27
f 46//27 49//27 48//27
f 46//27 44//27 47//27
f 40//34 46//34 45//34
f 39//35 45//35 48//35
f 38//36 44//36 46//36
f 41//37 47//37 44//37
f 17//38 8//38 6//38
f 18//39 22//39 5//39
f 13//40 22//40 7//40
f 19//41 23//41 7//41
f 14//42 23//42 9//42
f 20//43 24//43 9//43
f 15//44 24//44 11//44
f 21//45 25//45 11//45
f 16//46 25//46 5//46
f 1//47 12//47 6//47
f 4//48 10//48 12//48
f 17//49 10//49 8//49
f 1//50 6//50 18//50
f 22//51 6//51 19//51
f 2//52 8//52 19//52
f 23//53 8//53 20//53
f 3//54 10//54 20//54
f 24//55 10//55 21//55
f 25//56 21//56 31//56
f 29//57 18//57 31//57
f 31//58 30//58 37//58
f 35//59 29//59 37//59
f 27//60 4//60 28//60
f 21//61 4//61 30//61
f 12//62 1//62 28//62
f 26//63 1//63 29//63
f 37//27 36//27 43//27
f 41//27 35//27 43//27
f 33//28 27//28 34//28
f 30//29 27//29 36//29
f 28//30 26//30 34//30
f 32//31 26//31 35//31
f 43//32 42//32 49//32
f 41//33 43//33 47//33
f 39//27 33//27 40//27
f 42//27 36//27 39//27
f 34//27 32//27 40//27
f 32//27 35//27 38//27
f 45//27 46//27 48//27
f 49//27 46//27 47//27
f 39//34 40//34 45//34
f 42//35 39//35 48//35
f 40//36 38//36 46//36
f 38//37 41//37 44//37
